<?xml version="1.0" encoding="UTF-8" standalone="no"?>
<!DOCTYPE svg PUBLIC "-//W3C//DTD SVG 1.1//EN" "http://www.w3.org/Graphics/SVG/1.1/DTD/svg11.dtd">
<!-- Created with Vectornator (http://vectornator.io/) -->
<svg height="100%" stroke-miterlimit="10" style="fill-rule:nonzero;clip-rule:evenodd;stroke-linecap:round;stroke-linejoin:round;" version="1.1" viewBox="0 0 1024 1024" width="100%" xml:space="preserve" xmlns="http://www.w3.org/2000/svg" xmlns:xlink="http://www.w3.org/1999/xlink">
<defs/>
<g id="Layer-1">
<path d="M511.969 6.4375C232.569 6.43752 6.09375 232.913 6.09375 512.312C6.09373 791.712 232.569 1018.22 511.969 1018.22C791.369 1018.22 1017.88 791.712 1017.88 512.312C1017.88 232.913 791.369 6.4375 511.969 6.4375Z" fill="#ffffff" fill-rule="nonzero" opacity="1" stroke="none"/>
<path d="M853.938 331.844C857.459 331.844 859.219 335.659 859.219 343.344L859.719 367.375L860.188 413.469L860.188 642.562C860.188 648.006 860.993 651.673 862.594 653.594C864.835 656.475 870.441 657.758 879.406 657.437C884.209 657.117 886.594 658.4 886.594 661.281C886.594 663.522 883.404 664.656 877 664.656L855.375 664.188C839.686 663.867 823.196 667.683 805.906 675.687C803.985 676.328 802.883 676.656 802.563 676.656C799.681 676.656 798.07 673.794 797.75 668.031C797.75 665.15 797.273 661.123 796.312 656C783.505 669.768 766.538 676.656 745.406 676.656C717.231 676.656 694.031 666.249 675.781 645.437C657.531 624.626 648.406 598.205 648.406 566.188C648.406 533.529 657.68 507.198 676.25 487.187C694.82 467.176 719.302 457.187 749.719 457.188C769.57 457.188 785.763 464.553 798.25 479.281L798.25 412.031C798.25 383.215 796.968 366.158 794.406 360.875C791.845 355.592 783.346 353.117 768.938 353.438C760.613 353.438 756.438 352.335 756.438 350.094C756.438 347.853 758.377 346.719 762.219 346.719C791.355 346.719 819.207 342.395 845.781 333.75C849.623 332.469 852.337 331.844 853.938 331.844Z" fill="#457268" fill-rule="nonzero" opacity="1" stroke="none"/>
<path d="M54.3125 338.562L67.2812 339.031L158.031 338.562C158.992 338.562 160.751 338.711 163.313 339.031C190.528 427.72 213.578 501.376 232.469 559.969L297.312 338.562L307.406 338.562L370.812 339.031C371.773 339.031 374.486 339.031 378.969 339.031C383.771 338.711 388.095 338.562 391.938 338.562L414.031 338.562C420.435 338.562 423.625 339.993 423.625 342.875C423.625 346.077 421.717 347.508 417.875 347.188L406.812 346.719C393.365 346.078 384.33 347.361 379.687 350.562C375.045 353.764 372.719 359.996 372.719 369.281C372.719 371.843 372.867 377.449 373.188 386.094C373.508 394.739 373.687 434.937 373.688 506.656L373.688 640.656C373.688 652.183 376.639 658.802 382.562 660.562C388.486 662.323 397.282 663.039 408.969 662.719C420.655 662.399 426.5 663.861 426.5 667.062C426.5 670.264 423.31 671.844 416.906 671.844L413.531 671.844C406.487 671.844 394.082 671.695 376.312 671.375C358.543 671.055 345.332 670.906 336.687 670.906C333.166 670.906 325.8 671.055 314.594 671.375C303.708 671.375 289.008 671.375 270.438 671.375L258.406 671.375C253.924 671.375 251.688 669.944 251.688 667.062C251.688 664.181 253.924 662.719 258.406 662.719L274.75 663.219C289.478 663.539 298.423 660.974 301.625 655.531C302.586 653.93 303.094 644.328 303.094 626.719L302.594 366.406C292.348 392.981 278.899 435.235 262.25 493.188L220.469 640.156C215.346 658.086 211.202 667.062 208 667.062C204.478 667.062 201.257 662.559 198.375 653.594C197.414 650.712 187.187 619.999 167.656 561.406C160.292 539.314 140.283 477.348 107.625 375.531L107.625 623.844C107.625 638.252 107.774 646.81 108.094 649.531C108.414 652.253 109.845 654.579 112.406 656.5C117.209 660.662 125.38 662.57 136.906 662.25C148.433 661.93 154.188 663.689 154.188 667.531C154.188 669.772 151.803 670.906 147 670.906L104.25 669.938C96.8859 669.617 88.4178 669.766 78.8125 670.406C66.0054 671.047 57.3575 671.375 52.875 671.375C46.1513 671.375 42.7813 669.944 42.7812 667.062C42.7812 664.501 45.4945 663.219 50.9375 663.219C63.7446 663.219 71.4386 663.039 74 662.719C83.9255 661.438 89.6804 657.771 91.2812 651.688C92.2418 647.845 92.7187 639.854 92.7188 627.688L92.7188 398.594C92.7188 372.98 91.1979 358.01 88.1562 353.688C85.1146 349.365 73.6635 347.187 53.8125 347.188C48.6897 347.188 46.125 345.757 46.125 342.875C46.125 339.673 48.8695 338.242 54.3125 338.562Z" fill="#457268" fill-rule="nonzero" opacity="1" stroke="none"/>
<path d="M542.719 457.188C563.21 457.188 580.686 461.66 595.094 470.625C611.103 480.55 621.51 494.805 626.312 513.375C627.593 519.138 628.547 526.027 629.188 534.031C621.823 534.672 592.212 535.149 540.344 535.469C532.339 535.469 522.229 535.797 510.062 536.438C509.102 547.964 508.625 557.714 508.625 565.719C508.625 603.179 516.468 629.749 532.156 645.437C541.441 654.723 552.834 659.375 566.281 659.375C577.487 659.375 588.282 655.528 598.688 647.844C609.093 640.16 617.026 630.229 622.469 618.062C625.03 611.979 627.087 608.938 628.688 608.937C629.968 608.937 630.625 609.891 630.625 611.812C630.625 618.856 626.45 628.161 618.125 639.688C600.195 664.341 576.847 676.656 548.031 676.656C515.693 676.656 489.093 666.429 468.281 645.938C447.47 625.446 437.063 599.174 437.062 567.156C437.062 535.779 447.173 509.596 467.344 488.625C487.515 467.653 512.622 457.187 542.719 457.188Z" fill="#457268" fill-rule="nonzero" opacity="1" stroke="none"/>
<path d="M544.656 462.469C525.125 462.469 513.913 484.386 511.031 528.25C517.755 527.93 531.861 527.781 553.312 527.781C559.716 527.781 565.291 527.93 570.094 528.25C570.414 503.596 568.655 486.48 564.812 476.875C560.97 467.27 554.262 462.469 544.656 462.469Z" fill="#ffffff" fill-rule="nonzero" opacity="1" stroke="none"/>
<path d="M765.094 467.75C734.357 467.75 719 501.834 719 570.031C719 600.448 722.906 624.007 730.75 640.656C738.594 657.305 749.568 665.625 763.656 665.625C771.981 665.625 779.733 661.868 786.938 654.344C794.141 646.82 797.75 634.712 797.75 618.062L797.75 513.375C797.75 498.967 795.365 488.231 790.562 481.187C784.479 472.223 775.98 467.75 765.094 467.75Z" fill="#ffffff" fill-rule="nonzero" opacity="1" stroke="none"/>
<path d="M955.75 605.594C965.035 605.594 973.058 608.933 979.781 615.656C986.505 622.38 989.875 630.731 989.875 640.656C989.875 650.582 986.653 658.721 980.25 665.125C973.846 671.529 965.676 674.75 955.75 674.75C945.825 674.75 937.505 671.47 930.781 664.906C924.058 658.343 920.687 650.262 920.688 640.656C920.688 630.731 924.058 622.38 930.781 615.656C937.505 608.933 945.825 605.594 955.75 605.594Z" fill="#457268" fill-rule="nonzero" opacity="1" stroke="none"/>
</g>
</svg>
